<?xml version="1.0" standalone="no"?>
<!DOCTYPE svg PUBLIC "-//W3C//DTD SVG 20010904//EN"
 "http://www.w3.org/TR/2001/REC-SVG-20010904/DTD/svg10.dtd">
<svg version="1.0" xmlns="http://www.w3.org/2000/svg"
 width="512.000000pt" height="512.000000pt" viewBox="0 0 512.000000 512.000000"
 preserveAspectRatio="xMidYMid meet">

<g transform="translate(0.000000,512.000000) scale(0.100000,-0.100000)"
fill="#000000" stroke="none">
<path d="M2495 5104 c-16 -9 -50 -38 -75 -64 -322 -347 -345 -371 -365 -365
-11 3 -64 15 -118 25 -171 35 -245 23 -299 -45 l-23 -30 0 -350 c0 -335 1
-354 23 -435 28 -102 84 -224 142 -311 119 -177 340 -329 547 -378 l78 -18 3
-116 3 -116 -73 34 c-117 56 -180 65 -457 65 -225 0 -248 -2 -285 -20 -69 -34
-81 -60 -84 -180 -4 -133 15 -228 68 -339 57 -118 170 -231 290 -289 115 -57
198 -72 386 -72 l154 0 0 -316 0 -315 -52 62 c-255 307 -607 503 -996 554 -82
11 -211 15 -474 15 -355 0 -361 0 -400 -22 -45 -26 -78 -80 -78 -129 0 -45 36
-103 79 -127 34 -19 57 -21 446 -25 326 -4 423 -8 475 -20 171 -41 321 -107
456 -198 79 -53 191 -155 159 -144 -11 4 -60 18 -110 33 l-90 26 -747 4 c-729
3 -748 2 -786 -17 -75 -38 -77 -44 -80 -327 l-3 -252 -58 -4 c-67 -5 -111 -31
-135 -82 -14 -29 -16 -80 -16 -364 0 -182 4 -342 9 -355 12 -32 56 -76 88 -88
15 -5 980 -9 2465 -9 2703 0 2481 -6 2531 64 22 31 22 35 22 386 l0 355 -24
32 c-31 41 -77 63 -134 63 l-46 0 -3 253 c-3 284 -5 290 -80 328 -38 19 -57
20 -786 17 l-747 -4 -90 -26 c-49 -15 -99 -29 -110 -33 -32 -11 80 91 159 144
130 88 245 140 406 184 l115 31 410 4 c390 3 412 5 446 24 43 24 79 82 79 127
0 51 -35 108 -80 131 -37 19 -58 20 -397 20 -452 0 -560 -12 -778 -87 -173
-60 -355 -162 -484 -271 -61 -52 -185 -179 -230 -236 l-31 -39 0 317 0 316
154 0 c188 0 271 15 386 72 120 58 233 171 290 289 53 111 72 206 68 339 -3
120 -15 146 -84 180 -37 18 -60 20 -285 20 -277 0 -340 -9 -457 -65 l-73 -34
3 116 3 117 61 12 c190 39 411 180 533 340 67 89 144 246 173 354 22 81 23
101 23 435 l0 350 -23 30 c-54 68 -128 80 -299 45 -54 -10 -107 -22 -118 -25
-20 -6 -48 22 -365 365 -73 78 -138 98 -205 64z m227 -527 l51 -59 -59 -52
c-32 -30 -79 -81 -104 -115 -24 -33 -47 -61 -50 -61 -3 0 -26 28 -50 61 -25
34 -71 85 -104 114 l-59 53 37 43 c20 24 67 75 104 114 l67 71 58 -56 c32 -30
81 -81 109 -113z m-672 -229 c151 -73 282 -228 335 -398 14 -43 19 -104 23
-284 l4 -229 -28 7 c-16 4 -67 25 -114 48 -167 81 -307 260 -345 443 -10 48
-15 133 -15 269 l0 198 28 -6 c15 -4 65 -25 112 -48z m1158 -175 c-4 -179 -9
-240 -23 -283 -53 -170 -184 -325 -335 -398 -47 -23 -97 -44 -112 -48 l-28 -6
0 198 c0 234 12 303 70 420 47 97 150 212 233 262 59 36 163 81 186 82 11 0
12 -40 9 -227z m-996 -1511 c93 -46 159 -125 186 -224 l10 -38 -147 0 c-203 0
-287 28 -366 122 -35 41 -75 125 -75 156 l0 24 163 -4 c161 -3 163 -3 229 -36z
m1088 16 c0 -31 -41 -116 -75 -156 -79 -94 -163 -122 -366 -122 l-147 0 10 38
c32 118 122 210 241 247 26 9 97 14 190 14 146 1 147 1 147 -21z m-1444 -1505
c164 -47 333 -169 426 -306 38 -56 39 -60 17 -53 -53 15 -189 46 -269 62 -74
15 -182 18 -802 21 l-718 4 0 150 0 150 638 -4 c607 -3 640 -4 708 -24z m2754
-122 l0 -150 -717 -4 c-621 -3 -729 -6 -803 -21 -80 -16 -216 -47 -269 -62
-22 -7 -21 -3 17 53 22 33 74 91 116 130 112 105 219 156 411 196 11 3 296 5
633 6 l612 1 0 -149z m-2610 -474 c171 -36 259 -61 378 -108 l32 -13 0 -78 0
-78 -1055 0 -1055 0 0 151 0 150 813 -4 c690 -3 823 -6 887 -20z m2820 -127
l0 -150 -1055 0 -1055 0 0 79 c0 66 3 80 18 84 9 3 42 15 72 26 92 36 269 80
380 95 82 11 271 14 873 15 l767 1 0 -150z"/>
</g>
</svg>
