<svg width="193" height="214" viewBox="0 0 193 214" fill="none" xmlns="http://www.w3.org/2000/svg">
<rect x="1" y="1" width="191" height="212" fill="white" stroke="#262626" stroke-width="2"/>
<mask id="mask0_3767_1112" style="mask-type:alpha" maskUnits="userSpaceOnUse" x="2" y="2" width="189" height="210">
<rect x="3" y="3.15634" width="187" height="207.844" fill="#F1F0E8" stroke="#1A1A18" stroke-width="2"/>
</mask>
<g mask="url(#mask0_3767_1112)">
<path d="M-48.4346 106.849C-48.4346 127.177 -44.7121 147.305 -37.4797 166.085C-30.2473 184.865 -19.6466 201.928 -6.28285 216.302C7.0809 230.676 22.946 242.077 40.4066 249.856C57.8671 257.635 76.5813 261.639 95.4805 261.639L95.4805 106.849L-48.4346 106.849Z" fill="url(#paint0_linear_3767_1112)" stroke="#262626" stroke-width="2"/>
<path d="M239.396 107.991C239.396 87.6642 235.673 67.536 228.441 48.7561C221.208 29.9762 210.608 12.9123 197.244 -1.46118C183.88 -15.8347 168.015 -27.2364 150.554 -35.0153C133.094 -42.7942 114.38 -46.798 95.4805 -46.798L95.4805 107.991L239.396 107.991Z" fill="url(#paint1_linear_3767_1112)" stroke="#262626" stroke-width="2"/>
<path d="M95.4814 262.77C114.381 262.77 133.095 258.767 150.555 250.988C168.016 243.209 183.881 231.807 197.245 217.434C210.608 203.06 221.209 185.996 228.442 167.216C235.674 148.436 239.396 128.308 239.396 107.981L95.4814 107.981L95.4814 262.77Z" fill="url(#paint2_linear_3767_1112)" stroke="#262626" stroke-width="2"/>
<path d="M95.4815 -46.7972C76.5823 -46.7972 57.8682 -42.823 40.4076 -35.1015C22.947 -27.38 7.08191 -16.0625 -6.28184 -1.79502C-19.6456 12.4724 -30.2463 29.4104 -37.4787 48.0517C-44.7111 66.693 -48.4336 86.6726 -48.4336 106.85L95.4815 106.85L95.4815 -46.7972Z" fill="url(#paint3_linear_3767_1112)" stroke="#262626" stroke-width="2"/>
</g>
<ellipse cx="99.8164" cy="107.5" rx="49" ry="48.5" fill="white"/>
<path d="M148.816 107.5C148.816 101.131 147.549 94.8241 145.087 88.9398C142.624 83.0556 139.015 77.709 134.465 73.2053C129.915 68.7017 124.513 65.1292 118.568 62.6918C112.623 60.2545 106.251 59 99.8164 59C93.3816 59 87.0099 60.2545 81.0649 62.6918C75.12 65.1292 69.7182 68.7017 65.1682 73.2053C60.6181 77.709 57.0088 83.0556 54.5463 88.9399C52.0838 94.8241 50.8164 101.131 50.8164 107.5L99.8164 107.5H148.816Z" fill="url(#paint4_linear_3767_1112)" stroke="#262626" stroke-width="2"/>
<path d="M50.8164 107.5C50.8164 113.869 52.0838 120.176 54.5463 126.06C57.0088 131.944 60.6181 137.291 65.1682 141.795C69.7183 146.298 75.12 149.871 81.0649 152.308C87.0099 154.746 93.3816 156 99.8164 156C106.251 156 112.623 154.746 118.568 152.308C124.513 149.871 129.915 146.298 134.465 141.795C139.015 137.291 142.624 131.944 145.087 126.06C147.549 120.176 148.816 113.869 148.816 107.5L99.8164 107.5L50.8164 107.5Z" fill="url(#paint5_linear_3767_1112)" stroke="#262626" stroke-width="2"/>
<ellipse cx="99.8164" cy="107.5" rx="49" ry="24.25" fill="white" stroke="#262626" stroke-width="2"/>
<path d="M85.7444 118.704L97.604 107.466L85.7444 96.2273L82.9849 98.7866L90.3238 105.741H71.0078V109.19H90.3238L82.9849 116.145L85.7444 118.704Z" fill="#262626"/>
<path d="M116.141 118.703L128.001 107.465L116.141 96.2267L113.381 98.7859L120.72 105.74H101.404V109.19H120.72L113.381 116.144L116.141 118.703Z" fill="#262626"/>
<defs>
<linearGradient id="paint0_linear_3767_1112" x1="11.9333" y1="214.262" x2="31.9157" y2="203.324" gradientUnits="userSpaceOnUse">
<stop stop-color="#FFCE01"/>
<stop offset="1" stop-color="#FFCE01" stop-opacity="0"/>
</linearGradient>
<linearGradient id="paint1_linear_3767_1112" x1="194.311" y1="0.176511" x2="161.148" y2="6.11558" gradientUnits="userSpaceOnUse">
<stop stop-color="#FFCE01"/>
<stop offset="1" stop-color="#FFCE01" stop-opacity="0"/>
</linearGradient>
<linearGradient id="paint2_linear_3767_1112" x1="192.274" y1="215.959" x2="167.039" y2="184.226" gradientUnits="userSpaceOnUse">
<stop stop-color="#3260D7"/>
<stop offset="1" stop-color="#3260D7" stop-opacity="0"/>
</linearGradient>
<linearGradient id="paint3_linear_3767_1112" x1="18.3022" y1="2.15643" x2="24.7245" y2="14.7724" gradientUnits="userSpaceOnUse">
<stop stop-color="#3260D7"/>
<stop offset="1" stop-color="#3260D7" stop-opacity="0"/>
</linearGradient>
<linearGradient id="paint4_linear_3767_1112" x1="139.412" y1="88.6667" x2="110.033" y2="76.4546" gradientUnits="userSpaceOnUse">
<stop stop-color="#3260D7"/>
<stop offset="1" stop-color="#3260D7" stop-opacity="0"/>
</linearGradient>
<linearGradient id="paint5_linear_3767_1112" x1="62.2497" y1="130.942" x2="92.4504" y2="135.89" gradientUnits="userSpaceOnUse">
<stop stop-color="#FFCE01"/>
<stop offset="1" stop-color="#FFCE01" stop-opacity="0"/>
</linearGradient>
</defs>
</svg>
