<?xml version="1.0" standalone="no"?>
<!DOCTYPE svg PUBLIC "-//W3C//DTD SVG 20010904//EN"
 "http://www.w3.org/TR/2001/REC-SVG-20010904/DTD/svg10.dtd">
<svg version="1.0" xmlns="http://www.w3.org/2000/svg"
 width="972.000000pt" height="646.000000pt" viewBox="0 0 972.000000 646.000000"
 preserveAspectRatio="xMidYMid meet">

<g transform="translate(0.000000,646.000000) scale(0.100000,-0.100000)"
fill="#000000" stroke="none">
<path d="M6438 6011 c-13 -28 -17 -30 -28 -16 -7 9 -21 13 -31 10 -9 -3 -20
-1 -24 5 -12 19 -25 10 -25 -18 0 -26 -3 -28 -50 -30 -28 -1 -50 2 -50 8 0 5
-13 10 -30 10 -16 0 -30 -5 -30 -11 0 -7 -10 -9 -27 -5 -50 12 -223 15 -223 4
0 -6 -16 -8 -43 -4 -30 5 -48 2 -62 -8 -21 -16 -56 -21 -54 -8 4 21 -3 32 -20
32 -11 0 -23 -4 -26 -10 -3 -5 -19 -10 -36 -10 -16 0 -29 5 -29 10 0 6 -11 10
-25 10 -19 0 -25 -5 -25 -21 0 -17 -3 -19 -13 -10 -8 6 -17 8 -20 4 -4 -3 -12
-1 -19 4 -23 18 -67 24 -88 11 -16 -11 -25 -10 -47 4 -24 14 -29 14 -49 1 -12
-8 -33 -15 -46 -17 -12 -1 -30 -5 -38 -8 -35 -14 -45 -13 -63 5 -18 18 -21 19
-32 4 -13 -18 -35 -23 -35 -8 0 30 -70 18 -70 -13 -1 -19 -2 -18 -16 7 -12 21
-22 27 -49 27 -24 0 -35 -5 -35 -15 0 -17 -35 -21 -45 -5 -3 6 -15 10 -27 10
-18 0 -20 -4 -14 -32 4 -24 3 -29 -4 -18 -5 8 -10 25 -10 38 0 17 -6 22 -25
22 -20 0 -25 -5 -26 -27 0 -27 -1 -27 -9 -5 -5 12 -18 22 -29 22 -12 0 -21 -8
-24 -22 -4 -22 -4 -22 -6 -2 -1 17 -10 23 -38 29 -23 4 -39 3 -41 -3 -2 -7
-13 -7 -33 0 -17 6 -33 8 -36 4 -3 -3 -12 -1 -18 4 -16 13 -125 -9 -132 -27
-8 -20 -102 -18 -110 3 -4 12 -18 14 -64 11 -45 -3 -59 -1 -59 10 0 7 -8 13
-18 13 -19 0 -46 -36 -37 -50 4 -6 -1 -10 -9 -10 -9 0 -16 4 -16 9 0 5 -7 16
-15 25 -12 12 -22 13 -42 5 -20 -7 -30 -6 -43 6 -19 17 -50 20 -50 5 0 -7 -6
-7 -19 0 -11 5 -27 10 -35 10 -19 0 -22 -36 -3 -43 9 -4 8 -8 -3 -16 -23 -16
-30 -13 -30 13 0 16 -7 26 -22 30 -36 9 -48 7 -48 -8 0 -9 -12 -14 -35 -14
-28 0 -35 4 -35 19 0 12 -7 19 -20 19 -11 0 -20 -5 -20 -12 0 -6 -7 -19 -16
-29 -13 -14 -20 -16 -40 -7 -13 6 -24 19 -24 30 0 11 -7 18 -20 18 -15 0 -20
-7 -20 -25 0 -23 -2 -24 -27 -14 -15 6 -30 14 -33 19 -3 4 -16 10 -30 11 -20
3 -26 -1 -28 -18 -4 -26 -17 -30 -26 -8 -7 19 -46 20 -46 1 0 -9 -8 -12 -25
-8 -15 2 -25 0 -25 -7 0 -6 -9 -11 -20 -11 -14 0 -20 7 -20 21 0 18 -5 21 -38
17 -35 -3 -38 -1 -34 19 4 19 0 23 -23 23 -23 0 -26 -3 -21 -23 5 -21 3 -23
-24 -19 -17 2 -30 0 -30 -5 0 -5 -14 -10 -31 -10 -19 0 -37 -7 -45 -18 -8 -10
-14 -14 -14 -8 0 9 -82 26 -120 24 -8 0 -28 -1 -45 -1 -16 -1 -38 -8 -48 -17
-20 -19 -129 -21 -135 -3 -2 5 -19 10 -37 10 -20 0 -35 6 -39 15 -7 19 -35 19
-42 0 -4 -8 -10 -13 -14 -10 -4 3 -10 -5 -14 -17 -5 -21 -7 -21 -18 -6 -19 23
-82 19 -86 -6 -2 -10 2 -22 10 -27 10 -7 10 -9 -3 -9 -9 0 -19 9 -22 20 -4 15
-14 20 -41 20 -23 0 -43 7 -57 21 -25 25 -41 21 -50 -12 -4 -13 -7 -18 -8 -11
-1 14 -37 16 -46 2 -11 -18 -74 -11 -95 10 -28 28 -50 26 -50 -6 0 -22 -3 -24
-14 -15 -11 10 -16 9 -24 -5 -6 -12 -16 -14 -32 -9 -16 5 -19 9 -10 15 7 4 10
15 7 24 -8 20 -56 21 -63 1 -4 -8 -19 -15 -34 -15 -22 0 -29 5 -32 23 -4 26
-48 38 -48 13 0 -16 -20 -21 -71 -17 -19 1 -28 -4 -31 -17 -4 -15 -12 -18 -31
-15 -21 4 -26 1 -30 -18 -3 -19 -5 -16 -6 9 -1 38 -27 54 -46 29 -7 -10 -19
-17 -27 -17 -8 0 -19 -5 -25 -11 -17 -17 -42 -4 -36 19 3 12 -1 22 -11 25 -11
5 -16 1 -16 -13 0 -23 -15 -27 -23 -6 -6 16 -50 18 -94 5 -42 -13 -73 -3 -73
23 0 17 -5 20 -38 16 -35 -3 -38 -1 -34 19 4 19 0 23 -21 23 -22 0 -25 -4 -25
-40 0 -22 3 -40 9 -40 5 0 9 -4 9 -10 0 -5 -7 -7 -15 -4 -8 4 -15 16 -15 29 0
14 -7 25 -20 28 -15 4 -20 0 -20 -14 0 -20 -16 -26 -22 -8 -5 14 -58 -6 -58
-23 0 -9 -2 -10 -8 -2 -4 7 -36 15 -71 19 -61 7 -63 7 -56 -14 5 -16 2 -21
-13 -21 -11 0 -22 9 -25 20 -3 12 -14 20 -27 20 -17 0 -21 -5 -18 -22 2 -13 9
-22 16 -21 6 2 12 -3 12 -11 0 -17 -27 -29 -32 -14 -6 16 -68 -1 -68 -18 0
-17 -30 -19 -31 -1 -1 6 0 22 1 35 1 17 -4 22 -24 22 -24 0 -26 -3 -26 -45 0
-37 3 -45 19 -45 10 0 21 -9 24 -20 4 -15 0 -20 -14 -20 -10 0 -19 7 -19 15 0
9 -9 15 -25 15 -22 0 -25 -4 -25 -34 0 -19 -5 -38 -10 -41 -6 -3 -10 3 -10 14
0 14 -6 21 -20 21 -15 0 -20 -7 -20 -25 0 -26 -25 -36 -32 -13 -5 14 -41 -18
-51 -45 -8 -21 -23 -22 -31 -2 -11 29 -42 16 -60 -26 -16 -37 -19 -39 -31 -22
-13 17 -14 17 -20 1 -4 -10 -5 -25 -2 -33 9 -22 -13 -29 -27 -9 -17 23 -39 8
-33 -22 4 -21 1 -23 -20 -18 -22 6 -24 4 -21 -22 2 -21 9 -30 25 -32 12 -2 23
3 26 10 2 8 4 8 3 -2 -1 -9 -13 -16 -29 -18 -21 -3 -27 -9 -27 -28 0 -14 6
-24 14 -24 9 0 12 -7 9 -20 -3 -11 -9 -20 -14 -20 -5 0 -9 -25 -9 -55 0 -40 4
-57 15 -61 8 -4 15 -10 15 -15 0 -5 -7 -9 -15 -9 -9 0 -15 -9 -15 -21 0 -11
-7 -28 -16 -37 -15 -14 -15 -17 0 -27 9 -7 16 -20 16 -29 0 -9 6 -16 14 -16 9
0 12 -7 9 -20 -3 -11 -9 -20 -14 -20 -5 0 -9 -25 -9 -55 0 -40 4 -57 15 -61
19 -8 19 -24 0 -24 -8 0 -15 -8 -15 -17 0 -9 -7 -24 -16 -34 -19 -21 -11 -39
17 -39 11 0 19 7 19 18 1 24 24 52 44 52 16 0 16 -2 2 -15 -17 -17 -11 -45 9
-45 7 0 15 6 18 13 2 6 6 -3 9 -20 2 -18 1 -33 -4 -33 -11 0 -10 -37 1 -42 5
-1 3 -9 -5 -16 -12 -11 -14 -8 -14 18 0 25 -4 31 -18 28 -12 -3 -17 -13 -17
-41 0 -20 -3 -37 -7 -37 -5 0 -8 5 -8 10 0 6 -7 10 -16 10 -26 0 -14 -54 14
-58 12 -2 22 2 22 9 0 7 3 9 6 6 11 -10 -17 -37 -37 -37 -12 0 -19 -7 -19 -20
0 -11 7 -20 15 -20 8 0 15 -4 15 -9 0 -5 -7 -16 -15 -25 -10 -9 -15 -34 -15
-70 0 -49 2 -55 23 -59 l22 -4 -22 -8 c-14 -4 -23 -15 -23 -28 0 -11 -8 -29
-17 -40 -17 -18 -17 -19 0 -32 9 -6 17 -17 17 -24 0 -6 6 -11 14 -11 9 0 12
-7 9 -20 -3 -11 -9 -20 -14 -20 -5 0 -9 -27 -9 -59 0 -54 2 -60 22 -64 l23 -4
-22 -8 c-14 -4 -23 -15 -23 -28 0 -11 -7 -28 -16 -38 -9 -10 -13 -23 -9 -28
10 -17 45 -13 45 4 0 8 6 25 12 38 7 12 14 24 15 25 1 2 9 0 18 -6 16 -8 16
-10 1 -15 -9 -4 -13 -13 -10 -22 8 -20 31 -19 38 3 3 9 3 -11 0 -45 -5 -59 -4
-63 16 -63 12 0 30 4 40 10 15 8 17 6 13 -9 -3 -10 0 -22 7 -26 7 -4 8 -11 2
-18 -5 -7 -12 -31 -16 -55 -7 -45 -7 -45 47 -56 20 -5 27 -12 27 -30 0 -14 4
-26 10 -28 5 -1 11 -18 13 -37 3 -22 11 -37 23 -42 17 -7 17 -8 -3 -8 -18 -1
-23 -7 -23 -26 0 -27 26 -35 48 -13 9 9 12 8 12 -6 0 -13 5 -16 20 -11 14 5
20 2 20 -9 0 -11 9 -16 27 -16 25 0 26 -1 8 -20 -28 -31 -13 -49 40 -47 26 1
49 -3 53 -10 13 -20 57 -26 71 -9 18 22 31 20 31 -5 0 -15 5 -20 23 -17 18 2
22 9 20 33 -1 17 1 22 3 13 5 -15 13 -16 52 -11 26 3 49 9 52 13 12 16 42 19
56 5 9 -8 24 -15 35 -15 12 0 19 -7 19 -20 0 -13 7 -20 20 -20 13 0 20 7 20
20 0 13 10 24 26 30 36 14 43 13 37 -10 -4 -16 0 -20 19 -20 31 0 41 10 27 27
-7 8 -8 13 -1 13 5 0 12 -7 16 -15 6 -16 35 -10 48 9 5 8 8 7 8 -1 0 -6 -5
-15 -10 -18 -6 -4 -8 -16 -4 -28 6 -21 6 -21 -9 -3 -18 24 -47 15 -47 -14 0
-23 22 -36 42 -24 7 5 20 9 28 9 8 0 14 6 13 13 -2 6 4 12 12 12 9 0 15 9 15
24 0 19 4 23 20 19 12 -3 19 -12 18 -22 -2 -12 7 -17 40 -19 37 -3 42 -1 42
17 0 12 -6 21 -12 22 -7 0 0 5 16 10 34 10 37 8 39 -18 1 -15 6 -19 22 -15 11
3 24 11 28 19 4 7 18 13 30 13 13 0 28 5 35 12 8 8 14 5 23 -15 17 -37 39 -35
39 3 0 33 16 39 36 13 12 -17 15 -16 37 10 29 33 31 33 56 6 17 -19 23 -20 54
-8 27 9 39 10 49 1 16 -13 91 1 96 17 6 17 32 13 32 -4 0 -18 23 -18 72 -1 31
11 38 11 42 0 7 -19 31 -18 50 2 9 8 16 11 16 5 0 -15 33 -14 48 1 9 9 12 9
12 0 0 -17 30 -15 36 3 8 19 34 19 34 0 0 -23 33 -18 49 7 12 20 14 20 23 4 7
-13 17 -16 36 -11 15 4 43 8 62 9 19 1 40 4 45 5 6 2 20 0 32 -4 18 -6 22 -12
17 -31 -7 -27 19 -45 38 -26 10 10 56 -3 68 -20 3 -3 17 -9 31 -13 19 -5 28
-2 32 9 9 23 37 20 37 -4 0 -14 7 -20 21 -20 19 0 21 4 15 33 -4 23 -3 28 4
15 8 -12 19 -15 52 -11 24 3 45 10 48 14 10 15 54 16 69 2 8 -8 21 -13 31 -10
11 3 16 -2 16 -17 -1 -12 6 -22 17 -24 12 -2 17 3 17 17 0 23 4 26 47 35 29 7
31 5 26 -14 -5 -18 -2 -21 18 -18 16 2 23 9 21 21 -4 21 7 22 23 1 10 -15 13
-15 27 -1 14 14 15 12 12 -24 -1 -21 2 -42 7 -45 14 -8 38 26 39 53 0 16 5 20
21 16 12 -3 18 -11 15 -19 -3 -8 2 -17 12 -21 15 -7 25 -8 70 -4 19 2 15 41
-5 42 -12 1 -10 4 7 9 43 14 51 11 48 -12 -2 -18 1 -22 17 -20 11 2 25 9 30
16 6 7 27 15 48 19 30 5 40 2 50 -14 18 -29 37 -23 37 11 0 20 5 30 15 30 8 0
15 -7 15 -15 0 -23 26 -18 44 10 20 30 29 31 55 4 18 -19 22 -20 57 -7 29 10
38 10 41 1 7 -21 33 -15 43 10 7 17 9 18 9 5 1 -22 11 -23 37 -3 25 19 44 19
44 0 0 -18 13 -18 65 0 34 12 41 12 48 0 11 -20 34 -19 46 3 6 9 11 11 11 5 0
-22 40 -14 50 10 l9 22 0 -22 c1 -16 7 -23 21 -23 11 0 20 5 20 10 0 6 7 10
15 10 8 0 15 -4 15 -10 0 -17 38 -11 49 7 7 14 12 15 25 4 8 -7 24 -10 34 -7
11 4 52 7 92 7 40 1 82 4 93 8 11 4 46 4 79 -1 40 -5 66 -4 81 3 16 9 22 9 25
0 4 -13 172 -16 172 -2 0 4 11 6 25 3 18 -3 25 0 25 12 0 9 5 16 10 16 6 0 10
-8 10 -18 0 -17 12 -18 135 -19 76 0 135 3 135 9 0 5 8 4 19 -2 11 -5 29 -10
40 -10 12 0 21 -4 21 -10 0 -5 7 -10 15 -10 8 0 15 6 15 14 0 15 46 11 56 -5
8 -13 42 -11 46 3 3 8 55 11 183 10 99 0 187 4 197 9 12 6 18 6 18 -1 0 -7 19
-8 55 -4 47 6 58 4 71 -12 11 -14 17 -15 20 -6 7 14 40 16 49 2 11 -17 37 -11
42 10 5 18 12 20 59 18 30 -2 54 -6 54 -9 0 -9 493 -5 507 4 6 4 22 3 35 -1
12 -5 52 -10 87 -10 49 -1 68 2 80 16 24 25 40 26 87 0 36 -19 48 -21 71 -12
15 5 39 7 53 3 38 -11 98 -10 105 1 4 7 12 7 25 0 10 -5 28 -10 39 -10 12 0
21 -4 21 -10 0 -15 30 -12 36 3 3 9 28 12 94 10 90 -3 90 -3 90 22 0 14 4 25
10 25 5 0 9 -10 7 -22 -1 -17 4 -24 22 -26 20 -3 23 0 18 17 -6 25 1 27 18 5
14 -20 123 -28 194 -14 25 5 47 5 49 0 2 -5 28 -6 59 -3 45 5 57 3 65 -10 4
-9 15 -14 23 -11 8 4 12 10 9 15 -3 5 1 9 9 9 8 0 17 -7 21 -15 8 -21 32 -19
49 5 11 16 23 20 61 18 25 -2 46 -7 46 -11 0 -8 257 0 272 9 4 3 8 0 8 -5 0
-16 46 -13 59 2 6 8 8 17 4 20 -3 4 -1 7 5 7 7 0 12 -6 12 -14 0 -19 22 -26
86 -26 47 0 57 4 84 31 21 22 30 27 30 16 0 -9 5 -19 11 -23 14 -9 59 16 59
33 0 7 5 13 10 13 6 0 10 -12 10 -26 0 -21 4 -25 23 -22 19 3 22 8 20 40 -1
24 3 38 12 42 9 3 15 -1 15 -9 0 -8 7 -15 15 -15 8 0 15 9 15 19 0 11 5 23 11
27 6 3 9 17 6 31 -3 18 -1 23 10 19 25 -10 93 5 93 21 0 8 6 21 14 29 10 9 12
26 9 54 -5 33 -3 40 11 40 9 0 16 -5 16 -11 0 -15 42 -7 48 9 2 7 -5 16 -17
19 -15 4 -21 13 -21 34 0 20 -5 29 -16 29 -8 0 -12 5 -9 10 4 6 0 23 -8 39
l-15 29 44 7 c38 5 44 9 44 31 0 17 -5 24 -20 24 -16 0 -20 7 -20 34 0 25 5
35 20 39 26 7 26 27 -1 34 -15 4 -19 11 -15 27 3 11 6 24 6 29 0 4 9 7 20 7
15 0 20 7 20 26 0 22 -4 26 -23 22 -20 -4 -23 -1 -19 19 2 13 11 23 18 23 8 0
14 11 14 26 0 21 -4 25 -20 21 -18 -5 -20 0 -20 42 0 26 -5 52 -11 58 -9 9 -8
16 5 28 9 9 16 23 16 31 0 8 9 14 20 14 15 0 20 7 20 26 0 22 -4 26 -24 22
-19 -4 -22 -1 -18 16 3 12 11 24 18 29 16 9 7 37 -12 37 -8 0 -14 10 -14 25 0
20 -5 25 -27 26 -17 1 -21 3 -10 6 20 5 21 12 7 47 -8 23 -7 26 10 26 11 0 20
5 20 10 0 6 9 10 20 10 13 0 20 7 20 20 0 13 -7 20 -20 20 -17 0 -20 7 -20 40
0 33 3 40 20 40 11 0 20 4 20 9 0 13 -26 32 -33 24 -9 -8 -9 15 -1 45 4 13 14
22 25 22 12 0 19 7 19 20 0 14 -7 20 -24 20 -19 0 -23 4 -19 20 3 11 12 20 19
20 8 0 14 10 14 25 0 18 -5 25 -20 25 -17 0 -20 7 -20 50 0 28 -4 50 -10 50
-5 0 -10 7 -10 15 0 8 4 15 9 15 5 0 13 9 16 20 3 11 15 20 26 20 14 0 19 7
19 25 0 35 -37 34 -51 -1 -5 -15 -12 -24 -16 -21 -3 3 -2 14 2 24 5 10 7 21 7
26 -1 4 2 7 8 7 13 0 13 37 0 45 -6 3 -13 -2 -17 -12 -6 -16 -8 -15 -13 7 -5
18 -12 24 -27 23 -21 -2 -33 19 -33 64 0 24 -49 87 -50 64 0 -11 -4 -11 -19 3
-10 9 -25 14 -33 11 -10 -4 -23 4 -36 19 -11 14 -27 26 -36 26 -9 0 -16 7 -16
15 0 8 -9 15 -20 15 -13 0 -20 7 -20 20 0 24 -44 38 -65 20 -9 -8 -15 -8 -15
-2 0 6 9 14 20 17 18 6 24 17 21 38 0 4 8 7 20 7 15 0 20 5 17 22 -4 32 -36
35 -47 6 -6 -13 -10 -17 -10 -10 -1 15 -51 16 -51 0 0 -6 -3 -8 -6 -5 -4 4 -2
13 5 20 9 11 8 17 -4 27 -8 7 -15 23 -15 36 0 25 -24 31 -65 15 -28 -11 -52
14 -34 35 10 13 10 17 -2 25 -20 12 -27 11 -37 -7 -8 -14 -10 -14 -26 1 -9 9
-23 14 -31 11 -18 -6 -20 -26 -4 -26 18 0 -8 -27 -31 -33 -13 -3 -20 0 -20 8
0 8 -9 17 -20 20 -11 3 -20 12 -20 19 0 8 -14 16 -31 20 -44 9 -43 9 -58 -25
-12 -26 -15 -29 -23 -15 -15 27 -41 20 -36 -9 4 -16 1 -25 -7 -25 -7 0 -11 8
-9 18 5 22 -11 47 -25 38 -6 -4 -11 -17 -11 -29 0 -22 -7 -25 -75 -27 -11 -1
-23 -6 -27 -13 -5 -8 -8 -4 -8 11 0 17 -6 22 -25 22 -14 0 -25 -4 -25 -9 0
-14 -41 -21 -46 -8 -3 8 -28 12 -70 12 -53 0 -68 -4 -80 -19 -8 -11 -14 -14
-14 -8 0 7 -11 12 -25 12 -16 0 -25 -6 -25 -15 0 -8 -7 -15 -15 -15 -8 0 -15
5 -15 10 0 6 -5 10 -11 10 -5 0 -7 -6 -4 -12 4 -7 0 -5 -8 5 -15 18 -47 23
-47 7 0 -14 -27 -12 -53 4 -15 10 -37 13 -71 9 -42 -5 -50 -10 -60 -34 -13
-35 -26 -37 -26 -5 0 32 -19 44 -35 23 -17 -23 -26 -21 -51 11 -20 24 -25 25
-43 15 -25 -16 -51 -17 -51 -3 0 23 -74 3 -92 -24 -5 -8 -8 -7 -8 2 0 6 -7 12
-15 12 -8 0 -15 -4 -15 -9 0 -5 -12 -12 -27 -16 -19 -4 -29 -2 -35 9 -11 20
-25 20 -45 1 -13 -14 -16 -13 -31 4 -23 27 -72 18 -73 -13 -1 -19 -2 -18 -8 4
-6 21 -14 26 -49 28 -33 2 -42 0 -42 -12 0 -18 -35 -22 -45 -6 -12 19 -45 11
-45 -10 0 -11 5 -20 11 -20 5 0 7 -4 4 -10 -10 -17 -32 12 -27 37 4 19 0 23
-21 23 -20 0 -27 -6 -30 -27 l-4 -28 -2 28 c-1 27 -3 28 -48 25 -47 -3 -48 -3
-48 27 0 30 -21 37 -37 12 -5 -8 -13 -5 -28 8 -17 15 -23 16 -33 6 -9 -11 -9
-15 1 -18 10 -4 7 -9 -8 -20 -19 -13 -24 -13 -48 3 -15 10 -31 23 -37 31 -5 7
-24 15 -41 19 -27 5 -32 2 -46 -25z m62 -26 c-7 -8 -20 -14 -29 -14 -13 1 -13
2 2 6 9 2 17 9 17 14 0 5 5 9 11 9 8 0 8 -5 -1 -15z m1990 0 c-7 -8 -17 -15
-23 -15 -6 0 -2 7 9 15 25 19 30 19 14 0z m-480 -64 c0 -5 -7 -11 -15 -15 -15
-5 -20 5 -8 17 9 10 23 9 23 -2z m-6116 -26 c-4 -8 -7 -15 -9 -15 -2 0 -5 7
-9 15 -3 9 0 15 9 15 9 0 12 -6 9 -15z m2108 -736 c126 -27 216 -99 260 -208
22 -54 23 -68 26 -428 l3 -373 -70 0 -71 0 0 68 0 69 -42 -40 c-161 -153 -496
-134 -618 35 -84 116 -50 304 68 379 85 53 127 61 371 66 l224 5 -7 72 c-8 89
-37 149 -89 187 -56 41 -107 52 -217 47 -107 -5 -190 -30 -258 -78 -24 -17
-47 -28 -52 -25 -8 5 -60 90 -60 98 0 10 102 70 152 89 119 45 270 60 380 37z
m1477 -4 c178 -42 318 -184 362 -365 28 -120 10 -280 -46 -390 -140 -275 -551
-345 -766 -130 l-49 49 -2 -267 -3 -267 -70 0 -70 0 -3 688 -2 687 70 0 70 0
0 -89 0 -90 50 53 c111 118 281 163 459 121z m-3294 -337 c110 -187 205 -347
211 -355 8 -12 55 60 223 341 l213 356 69 0 69 0 -2 -502 -3 -503 -65 0 -65 0
-5 382 -5 383 -195 -323 c-185 -305 -197 -322 -226 -325 -32 -3 -33 -1 -230
327 l-199 329 -3 -389 -2 -389 -65 0 -65 0 0 505 0 505 73 0 72 0 200 -342z
m4285 -98 l0 -440 240 0 240 0 0 440 0 440 75 0 75 0 0 -440 0 -440 235 0 235
0 0 440 0 440 75 0 75 0 0 -505 0 -505 -695 0 -695 0 0 505 0 505 70 0 70 0 0
-440z m2782 398 c-7 -7 -12 -8 -12 -2 0 14 12 26 19 19 2 -3 -1 -11 -7 -17z
m-12 -423 c0 -8 -4 -15 -10 -15 -5 0 -7 7 -4 15 4 8 8 15 10 15 2 0 4 -7 4
-15z m20 -64 c0 -6 -4 -13 -10 -16 -5 -3 -10 1 -10 9 0 9 5 16 10 16 6 0 10
-4 10 -9z m-8923 -247 c-3 -3 -12 -4 -19 -1 -8 3 -5 6 6 6 11 1 17 -2 13 -5z
m8923 -63 c0 -6 -4 -13 -10 -16 -5 -3 -10 1 -10 9 0 9 5 16 10 16 6 0 10 -4
10 -9z m-8650 -646 c0 -8 -2 -15 -4 -15 -2 0 -6 7 -10 15 -3 8 -1 15 4 15 6 0
10 -7 10 -15z m2825 -115 c3 -5 1 -10 -4 -10 -6 0 -11 5 -11 10 0 6 2 10 4 10
3 0 8 -4 11 -10z"/>
<path d="M3748 4610 c-60 -10 -120 -44 -141 -80 -26 -43 -23 -139 6 -181 36
-54 95 -80 191 -86 142 -9 243 36 314 141 30 45 32 54 32 132 l0 84 -177 -1
c-98 -1 -199 -5 -225 -9z"/>
<path d="M5225 5026 c-130 -41 -224 -158 -245 -303 -26 -189 63 -363 218 -424
88 -35 216 -32 299 5 126 57 202 174 211 325 13 243 -137 412 -366 410 -42 0
-95 -6 -117 -13z"/>
<path d="M6440 3015 c-15 -29 -25 -32 -34 -10 -4 13 -10 14 -26 5 -13 -7 -20
-7 -20 0 0 5 -7 10 -15 10 -10 0 -15 -10 -15 -26 0 -23 4 -26 25 -22 13 3 22
2 20 -3 -9 -13 -144 -5 -150 9 -6 17 -55 16 -55 -2 0 -17 -52 -15 -58 2 -2 8
-10 8 -27 0 -18 -8 -32 -8 -55 2 -25 10 -33 10 -47 -1 -13 -11 -17 -11 -20 -1
-6 17 -32 15 -39 -2 -4 -10 -21 -14 -52 -14 -26 0 -62 -3 -80 -7 -18 -4 -32
-3 -31 1 4 23 -3 34 -20 34 -11 0 -21 -5 -23 -10 -6 -18 -66 -21 -72 -4 -3 8
-15 14 -26 14 -15 0 -20 -7 -20 -27 0 -20 -3 -24 -11 -16 -6 6 -18 9 -25 6 -8
-3 -14 -1 -14 5 0 15 -69 22 -97 9 -21 -9 -26 -8 -34 6 -12 21 -37 22 -59 2
-9 -8 -39 -17 -66 -20 -27 -3 -51 -10 -53 -16 -2 -6 -10 -1 -18 10 -16 23 -39
28 -46 9 -3 -10 -9 -10 -26 0 -29 17 -71 5 -71 -20 0 -10 -4 -16 -10 -13 -5 3
-10 15 -10 26 0 16 -7 19 -40 19 -23 0 -40 -5 -40 -11 0 -8 -15 -9 -46 -4
l-47 7 7 -29 c5 -21 4 -24 -4 -13 -5 8 -10 23 -10 33 0 11 -8 17 -25 17 -19 0
-25 -5 -26 -22 -1 -17 -2 -19 -6 -5 -7 25 -53 23 -53 -3 0 -14 -6 -20 -22 -19
-17 1 -19 2 -5 6 21 6 22 29 1 37 -25 10 -64 7 -64 -4 0 -7 -7 -7 -21 1 -12 6
-30 9 -40 6 -10 -3 -22 -1 -25 5 -4 6 -21 7 -43 2 -20 -4 -45 -6 -55 -6 -11 1
-26 -8 -33 -18 -17 -24 -90 -28 -107 -5 -7 9 -33 15 -68 17 -38 2 -58 7 -58
16 0 6 -8 12 -17 12 -23 0 -45 -44 -30 -59 8 -8 6 -11 -6 -11 -10 0 -23 11
-29 25 -10 22 -16 24 -48 19 -27 -4 -45 -1 -64 11 -24 16 -26 16 -32 1 -6 -15
-9 -15 -30 -1 -13 8 -28 15 -34 15 -14 0 -13 -47 3 -53 9 -4 8 -8 -3 -16 -15
-10 -34 5 -24 21 6 10 -30 28 -55 28 -12 0 -21 -4 -21 -9 0 -11 -45 -20 -58
-12 -4 3 -11 14 -15 24 -10 26 -33 20 -47 -13 -7 -16 -18 -30 -24 -30 -16 1
-41 22 -49 43 -11 30 -37 20 -38 -15 0 -18 -3 -27 -6 -20 -2 6 -15 12 -28 12
-13 0 -25 4 -27 8 -1 5 -16 12 -32 16 -27 7 -28 5 -24 -18 6 -28 -16 -37 -26
-11 -8 21 -46 19 -46 -2 0 -15 -2 -16 -10 -3 -8 13 -13 13 -39 -3 -38 -22 -50
-22 -44 3 5 18 0 20 -58 20 -35 0 -75 3 -88 7 -19 5 -23 3 -18 -9 5 -13 -1
-15 -32 -11 -33 5 -39 2 -45 -18 -4 -14 -9 -19 -13 -11 -2 6 -18 12 -33 12
-16 0 -32 5 -35 10 -8 13 -72 13 -80 0 -4 -6 -13 -5 -25 2 -16 10 -22 9 -38
-10 -16 -18 -30 -22 -81 -22 -34 0 -61 4 -61 10 0 6 -15 10 -34 10 -21 0 -36
6 -40 15 -6 18 -46 20 -46 3 0 -6 -3 -8 -7 -4 -4 3 -12 -6 -19 -21 -8 -19 -13
-22 -13 -10 -1 26 -91 25 -91 -1 0 -10 5 -23 12 -30 9 -9 8 -12 -5 -12 -10 0
-17 8 -17 20 0 17 -7 20 -44 20 -36 0 -46 4 -51 20 -4 13 -15 20 -32 20 -22 0
-25 -4 -21 -25 3 -14 1 -25 -3 -25 -5 0 -9 5 -9 10 0 6 -11 10 -25 10 -14 0
-25 -4 -25 -10 0 -14 -56 -12 -72 3 -23 20 -55 36 -62 30 -3 -4 -6 -18 -7 -32
0 -14 -3 -20 -6 -13 -6 14 -33 16 -33 2 0 -5 -9 -10 -21 -10 -12 0 -19 5 -16
13 7 20 -12 47 -34 47 -12 0 -23 -8 -26 -20 -4 -15 -14 -20 -37 -20 -27 0 -32
4 -32 23 1 16 -5 23 -21 25 -16 2 -23 -2 -23 -12 0 -12 -11 -16 -50 -16 -38 0
-50 -4 -50 -15 0 -11 -8 -15 -27 -13 -21 2 -28 -2 -34 -22 -6 -22 -7 -20 -8
13 -1 33 -4 37 -26 37 -15 0 -25 -6 -25 -14 0 -29 -122 -30 -134 -1 -3 8 -20
11 -53 8 -96 -8 -135 -8 -139 -1 -3 5 2 8 10 8 9 0 16 7 16 15 0 11 -11 15
-38 15 -33 0 -38 3 -38 22 1 16 -5 23 -19 23 -25 0 -32 -32 -8 -38 17 -4 17
-5 1 -6 -30 -2 -21 -31 10 -32 24 0 25 -1 7 -9 -37 -16 -54 -12 -48 11 4 12 0
25 -8 30 -21 13 -26 11 -34 -13 -4 -14 -8 -18 -12 -10 -8 21 -53 14 -63 -10
-5 -13 -9 -17 -9 -10 -1 7 -15 12 -36 12 -19 0 -35 5 -35 10 0 6 -14 10 -31
10 -28 0 -31 -2 -25 -25 5 -21 3 -25 -17 -25 -18 0 -23 5 -23 23 1 16 -5 23
-22 25 -20 3 -23 0 -20 -25 2 -16 8 -27 16 -26 6 2 12 -4 12 -12 0 -8 -7 -15
-15 -15 -8 0 -15 5 -15 10 0 6 -9 10 -20 10 -11 0 -20 -4 -20 -10 0 -5 -7 -10
-15 -10 -8 0 -15 -7 -15 -15 0 -8 -7 -15 -15 -15 -15 0 -19 16 -16 53 2 12 -5
17 -22 17 -22 0 -25 -4 -25 -40 -1 -31 3 -40 16 -40 11 0 18 -8 19 -20 1 -11
-4 -20 -13 -20 -8 0 -14 5 -14 10 0 6 -11 10 -25 10 -22 0 -25 -4 -25 -34 0
-19 -5 -38 -10 -41 -6 -3 -10 3 -10 14 0 14 -6 21 -20 21 -14 0 -20 -7 -20
-21 0 -17 -4 -20 -24 -15 -28 7 -40 -2 -25 -20 8 -9 5 -11 -9 -7 -14 3 -22 -1
-27 -16 -7 -25 -20 -27 -29 -6 -9 23 -44 18 -52 -7 -10 -35 -26 -51 -34 -37
-12 18 -32 -1 -26 -23 2 -12 -2 -27 -10 -35 -12 -13 -14 -12 -14 6 0 15 -6 21
-21 21 -18 0 -21 -5 -17 -30 3 -16 1 -30 -4 -30 -4 0 -8 5 -8 10 0 6 -7 10
-16 10 -26 0 -14 -54 14 -58 12 -2 22 2 22 9 0 7 3 9 6 6 11 -10 -17 -37 -37
-37 -12 0 -19 -7 -19 -20 0 -11 7 -20 15 -20 8 0 15 -4 15 -9 0 -5 -7 -16 -15
-25 -10 -9 -15 -34 -15 -70 0 -49 2 -55 23 -59 l22 -4 -22 -8 c-14 -4 -23 -15
-23 -28 0 -11 -8 -29 -17 -40 -17 -18 -17 -19 0 -32 9 -6 17 -17 17 -24 0 -6
6 -11 14 -11 9 0 12 -7 9 -20 -3 -11 -9 -20 -14 -20 -5 0 -9 -25 -9 -55 0 -40
4 -57 15 -61 19 -8 19 -24 0 -24 -9 0 -15 -9 -15 -21 0 -11 -7 -27 -15 -36
-18 -18 -11 -33 16 -33 11 0 19 7 19 18 1 18 23 52 34 52 4 0 6 -8 5 -17 -3
-33 1 -43 16 -43 8 0 16 8 16 18 1 9 5 1 8 -18 4 -19 2 -38 -3 -41 -5 -4 -6
-19 -4 -33 3 -14 1 -26 -3 -26 -5 0 -9 12 -9 26 0 19 -4 25 -18 22 -12 -3 -17
-13 -17 -40 0 -34 -2 -37 -23 -31 -21 5 -23 3 -20 -23 2 -21 9 -30 25 -32 12
-2 23 3 26 10 2 8 4 8 3 -2 -1 -9 -13 -16 -29 -18 -21 -3 -27 -9 -27 -28 0
-14 6 -24 14 -24 9 0 12 -7 9 -20 -3 -11 -9 -20 -14 -20 -5 0 -9 -25 -9 -55 0
-40 4 -57 15 -61 19 -8 19 -24 0 -24 -9 0 -15 -9 -15 -21 0 -11 -7 -28 -16
-37 -15 -14 -15 -17 0 -27 9 -7 16 -17 16 -24 0 -6 7 -11 15 -11 8 0 15 -4 15
-9 0 -5 -7 -16 -15 -25 -10 -9 -15 -34 -15 -70 0 -49 2 -55 23 -59 l22 -4 -22
-8 c-14 -4 -23 -15 -23 -28 0 -11 -7 -28 -16 -38 -9 -10 -13 -23 -9 -28 9 -15
45 -14 45 2 0 31 25 65 46 63 22 -1 22 -1 4 -19 -20 -18 -17 -47 5 -47 8 0 16
8 19 18 3 9 3 -9 0 -40 l-5 -58 28 0 c16 0 33 4 39 10 11 11 11 -68 0 -118 -8
-34 -7 -35 47 -46 20 -5 27 -12 27 -30 0 -14 4 -26 10 -28 5 -2 11 -17 13 -33
2 -17 7 -36 11 -43 4 -7 2 -12 -3 -12 -6 0 -11 -13 -11 -30 0 -32 16 -39 39
-17 11 9 14 9 18 0 3 -7 13 -13 24 -13 10 0 19 -4 19 -10 0 -5 12 -10 27 -10
25 0 25 -1 10 -18 -21 -23 -21 -36 -2 -52 12 -10 18 -10 30 0 12 10 24 8 61
-11 38 -18 50 -20 65 -11 27 17 39 15 39 -9 0 -15 5 -20 23 -17 18 3 22 8 20
38 -2 26 -1 30 6 15 6 -16 16 -19 47 -17 21 2 44 9 49 16 20 25 47 27 66 5 11
-12 25 -19 34 -15 11 4 15 -1 15 -20 0 -34 32 -29 40 6 8 33 55 41 63 11 5
-22 31 -28 42 -11 3 6 20 10 37 10 27 0 29 -2 17 -17 -10 -11 -10 -14 -1 -9 8
5 12 0 12 -13 0 -12 4 -21 8 -21 14 0 42 35 42 51 0 8 9 15 20 15 13 0 18 -6
17 -20 -2 -18 4 -21 40 -22 39 -2 43 0 43 22 0 13 -6 24 -12 25 -7 0 0 5 16
10 34 10 37 8 39 -18 1 -15 6 -19 22 -15 11 3 25 11 30 18 6 6 26 14 46 17 32
5 38 2 48 -19 16 -35 31 -29 31 11 0 24 5 35 15 35 8 0 15 -7 15 -15 0 -21 24
-19 45 5 22 24 44 26 60 4 10 -14 16 -15 48 -3 26 9 39 10 49 1 13 -10 38 -7
104 13 14 4 23 2 27 -9 5 -14 11 -13 52 1 34 11 50 12 58 4 16 -16 38 -14 53
6 8 11 13 13 14 6 0 -16 32 -17 48 -1 9 9 12 9 12 0 0 -17 30 -15 36 3 9 22
34 18 34 -5 0 -29 25 -25 49 7 16 22 20 24 21 11 0 -21 49 -25 68 -6 9 9 12 9
12 0 0 -17 38 -15 56 3 13 12 17 12 34 -5 11 -11 20 -29 20 -39 0 -27 14 -33
45 -19 18 8 29 9 33 1 12 -17 85 -38 90 -24 7 20 42 13 42 -10 0 -14 5 -19 18
-17 12 3 17 13 15 38 0 19 1 27 4 18 3 -13 15 -17 49 -16 25 0 48 6 52 14 12
22 57 24 73 3 14 -19 34 -25 42 -11 2 4 2 1 1 -5 -5 -20 7 -43 21 -43 7 0 15
13 18 29 8 38 54 50 67 16 5 -12 17 -24 27 -27 28 -7 28 31 0 42 -21 8 -20 9
6 9 18 1 27 -4 27 -14 0 -8 9 -15 20 -15 11 0 21 -7 21 -15 3 -28 4 -33 11
-40 12 -12 38 22 39 52 0 15 3 22 6 16 2 -7 11 -13 18 -13 7 0 12 -8 11 -18
-1 -14 8 -17 47 -19 44 -2 47 -1 47 22 0 17 -6 25 -17 26 -12 1 -10 4 7 9 40
13 51 11 48 -7 -3 -20 2 -23 32 -23 11 0 20 6 20 14 0 10 13 16 38 18 29 2 41
-2 55 -20 23 -28 40 -19 35 19 -4 23 -1 29 14 29 10 0 18 -7 18 -15 0 -22 27
-18 40 5 13 24 48 26 65 4 10 -15 16 -15 50 -3 30 11 39 11 42 2 6 -18 32 -16
40 3 4 10 8 12 12 5 5 -8 17 -7 39 1 27 11 34 10 42 -1 7 -12 15 -12 56 -1 36
10 49 11 52 2 4 -14 38 -16 46 -3 3 4 17 6 31 4 19 -4 27 0 34 18 l10 24 0
-22 c1 -24 24 -30 50 -14 10 7 19 4 28 -7 12 -16 15 -15 34 8 15 16 23 21 26
13 3 -9 27 -13 73 -13 45 0 70 4 73 13 4 9 6 9 6 0 1 -15 61 -18 61 -3 0 15
117 13 123 -3 3 -9 13 -7 37 7 29 17 34 17 41 3 12 -21 157 -23 165 -3 3 8 15
11 30 8 14 -2 24 0 24 7 0 6 5 11 10 11 6 0 10 -9 10 -20 0 -13 7 -20 20 -20
11 0 20 5 20 11 0 8 4 8 14 0 14 -12 43 -10 79 4 10 4 28 2 41 -4 29 -16 102
-11 98 7 -3 16 3 15 20 -1 7 -8 30 -17 51 -21 31 -6 37 -4 37 10 0 14 2 15 16
3 20 -17 149 -16 169 1 10 8 14 7 18 -2 3 -10 8 -11 26 0 24 14 71 16 71 3 0
-4 36 -9 80 -10 64 -1 84 2 98 15 16 16 17 16 20 1 4 -19 27 -23 37 -7 9 14
82 13 87 -2 2 -6 27 -12 57 -13 45 -2 54 1 59 17 4 16 13 18 58 16 35 -2 54
-7 54 -15 0 -7 9 -13 19 -13 11 0 22 6 24 13 4 10 6 10 6 0 1 -16 91 -18 91
-3 0 14 37 12 43 -2 3 -10 9 -10 23 -2 13 7 30 8 53 2 23 -7 41 -6 55 1 23 12
96 11 96 -1 0 -5 20 -8 44 -8 31 0 46 5 50 16 6 17 45 11 58 -10 5 -8 14 -7
30 3 16 10 23 10 26 2 6 -19 66 -13 85 9 9 11 28 20 41 20 29 0 76 -20 76 -32
0 -12 33 -9 53 6 18 14 63 10 73 -5 7 -12 74 -11 74 1 0 13 33 13 45 1 6 -5
27 -13 48 -16 32 -6 37 -5 38 11 0 11 3 14 6 7 6 -16 35 -17 51 -1 9 9 17 9
34 0 13 -7 50 -11 82 -9 48 2 60 6 66 22 4 13 9 15 14 7 4 -7 16 -12 27 -12
10 0 19 -4 19 -10 0 -15 57 -12 64 2 5 10 7 10 12 1 6 -15 41 -18 46 -5 2 5
20 12 41 15 28 4 37 2 37 -9 0 -16 16 -19 25 -4 10 17 86 12 100 -6 10 -15 13
-15 29 2 17 16 19 16 28 1 12 -23 34 -21 51 3 11 16 23 20 60 18 26 -2 49 -9
52 -15 6 -16 35 -17 35 -1 0 9 3 9 12 0 14 -14 80 -16 94 -3 15 15 134 18 134
4 0 -20 31 -15 57 9 13 12 23 16 23 10 0 -13 60 -30 108 -30 22 -1 37 6 45 19
6 10 17 19 24 19 7 0 13 5 13 12 0 6 6 3 14 -7 12 -17 18 -18 40 -7 14 6 26
18 26 27 0 8 5 15 10 15 6 0 10 -12 10 -26 0 -21 4 -25 23 -22 17 2 22 9 20
32 -1 15 4 35 12 43 13 13 15 12 15 -1 0 -9 7 -16 15 -16 8 0 15 9 15 20 0 11
5 20 10 20 14 0 12 47 -2 54 -7 3 0 4 15 1 39 -8 97 4 97 20 0 7 6 15 14 18
11 4 13 18 10 51 l-5 46 37 -3 c41 -2 60 21 25 30 -15 4 -21 13 -21 34 0 20
-5 29 -16 29 -8 0 -13 4 -10 9 4 5 2 20 -3 32 -7 19 -4 26 17 36 13 7 31 13
38 13 8 0 14 11 14 26 0 21 -4 25 -20 21 -17 -4 -20 0 -20 34 0 32 3 39 20 39
11 0 20 4 20 9 0 13 -26 32 -33 24 -9 -8 -9 15 -1 45 4 13 14 22 25 22 14 0
19 7 19 26 0 22 -4 26 -24 22 -19 -4 -22 -1 -18 14 2 10 11 18 18 18 8 0 14
10 14 25 0 18 -5 25 -20 25 -17 0 -20 7 -20 50 0 28 -4 50 -10 50 -5 0 -10 7
-10 15 0 8 4 15 9 15 5 0 13 9 16 20 3 11 15 20 26 20 14 0 19 7 19 25 0 35
-37 34 -51 -1 -5 -15 -12 -24 -16 -21 -3 3 -2 14 2 24 5 10 7 21 7 26 -1 4 2
7 8 7 5 0 10 9 10 20 0 11 7 20 15 20 8 0 15 4 15 9 0 13 -26 32 -33 24 -4 -3
-7 8 -7 25 0 28 -4 32 -27 33 -17 1 -21 3 -10 6 13 3 15 11 10 31 -3 15 -10
30 -16 33 -5 4 12 10 37 13 40 6 46 10 46 32 0 17 -5 24 -20 24 -16 0 -20 7
-20 34 0 25 5 35 20 39 11 3 20 10 20 17 0 7 -9 14 -20 17 -32 8 -22 63 11 63
14 0 19 7 19 25 0 35 -37 34 -51 -1 -5 -15 -12 -24 -16 -21 -3 3 -2 14 2 24 5
10 7 21 7 26 -1 4 2 7 8 7 5 0 10 7 10 15 0 8 7 15 15 15 10 0 15 10 15 26 0
21 -4 25 -20 21 -18 -5 -20 0 -20 42 0 26 -5 52 -11 58 -9 9 -8 16 5 28 9 9
16 23 16 31 0 8 9 14 20 14 15 0 20 7 20 26 0 22 -4 26 -23 22 -20 -4 -23 -1
-19 23 5 32 -17 50 -25 20 -7 -28 -20 -27 -19 2 1 17 -4 22 -21 21 -20 0 -24
6 -29 45 -6 47 -43 107 -51 84 -3 -10 -9 -9 -20 3 -9 8 -22 13 -31 9 -17 -6
-52 22 -52 43 0 9 -6 12 -15 8 -9 -3 -18 1 -21 9 -4 8 -15 15 -25 15 -12 0
-19 7 -19 19 0 22 -30 35 -59 26 -11 -3 -21 0 -24 9 -4 9 0 12 13 9 12 -3 22
3 29 16 7 12 18 21 26 21 9 0 15 10 15 25 0 33 -37 35 -50 3 -7 -18 -9 -19 -9
-5 -1 11 -9 17 -25 17 -15 0 -27 -7 -29 -17 -4 -11 -5 -8 -5 7 1 14 -2 40 -7
59 -8 33 -9 33 -51 27 -37 -5 -45 -2 -54 14 -7 14 -7 20 0 20 16 0 12 20 -6
27 -10 4 -22 -1 -29 -10 -11 -15 -14 -16 -25 -2 -16 19 -50 19 -50 0 0 -8 6
-15 13 -15 6 0 -1 -9 -18 -20 -22 -14 -31 -16 -34 -7 -14 44 -121 90 -121 52
0 -8 -4 -15 -9 -15 -5 0 -12 -8 -14 -17 -4 -17 -5 -17 -6 0 -1 10 -9 17 -22
17 -18 0 -20 -5 -16 -26 5 -26 4 -26 -39 -21 -24 2 -61 1 -84 -3 -35 -6 -40
-5 -40 11 0 14 -7 19 -25 19 -14 0 -25 -4 -25 -9 0 -19 -41 -23 -54 -5 -9 12
-15 14 -20 6 -9 -15 -53 -16 -61 -2 -10 16 -34 12 -52 -9 -13 -15 -21 -18 -35
-10 -21 11 -38 4 -38 -17 0 -17 -26 -19 -33 -1 -4 8 -6 8 -6 -2 -1 -11 -5 -10
-15 4 -12 16 -18 18 -48 8 -26 -8 -39 -7 -52 3 -10 7 -34 11 -55 9 -20 -1 -42
-3 -49 -4 -7 -1 -18 -12 -24 -26 -13 -30 -28 -33 -28 -6 0 27 -21 37 -35 18
-16 -23 -32 -21 -40 2 -7 24 -43 37 -58 22 -16 -16 -47 -13 -47 4 0 9 -9 15
-25 15 -14 0 -25 -4 -25 -9 0 -12 -39 -26 -62 -22 -10 1 -18 -3 -18 -9 0 -6
-4 -9 -9 -5 -5 3 -12 1 -16 -5 -3 -5 -13 -10 -22 -10 -9 0 -14 3 -10 6 6 7
-17 34 -29 34 -3 0 -15 -9 -24 -21 l-18 -20 -7 20 c-7 22 -16 25 -53 14 -17
-4 -22 -11 -19 -24 3 -11 1 -19 -4 -19 -5 0 -9 11 -9 25 0 23 -4 25 -45 25
-26 0 -45 -5 -45 -11 0 -8 -15 -9 -45 -5 -37 6 -45 4 -45 -8 0 -9 5 -16 10
-16 6 0 10 -4 10 -10 0 -23 -21 -7 -26 20 -8 38 -50 44 -57 8 l-4 -23 -2 23
c-1 16 -7 22 -26 22 -14 0 -25 -4 -25 -9 0 -5 -11 -4 -25 2 -21 10 -24 17 -19
40 7 31 -9 36 -38 11 -16 -16 -18 -16 -24 0 -8 20 -44 21 -44 1 0 -8 6 -15 12
-15 7 0 3 -7 -10 -15 -19 -14 -24 -14 -52 0 -16 8 -30 22 -30 29 0 7 -14 16
-31 20 -44 9 -44 9 -59 -19z m56 -31 c-9 -8 -24 -14 -34 -11 -14 3 -13 6 8 15
36 15 44 14 26 -4z m1989 0 c-9 -9 -19 -13 -23 -10 -3 4 0 11 8 16 24 15 33
11 15 -6z m-4968 -76 c-3 -8 -6 -5 -6 6 -1 11 2 17 5 13 3 -3 4 -12 1 -19z
m4493 12 c0 -5 -6 -10 -14 -10 -8 0 -18 5 -21 10 -3 6 3 10 14 10 12 0 21 -4
21 -10z m-6120 -20 c0 -5 -7 -7 -15 -4 -8 4 -15 8 -15 10 0 2 7 4 15 4 8 0 15
-4 15 -10z m-1067 -127 c-7 -2 -21 -2 -30 0 -10 3 -4 5 12 5 17 0 24 -2 18 -5z
m8034 -15 c-3 -8 -6 -5 -6 6 -1 11 2 17 5 13 3 -3 4 -12 1 -19z m-5228 -23
c89 -46 48 -180 -55 -180 -54 0 -92 33 -101 88 -5 32 -1 41 30 72 39 39 78 45
126 20z m5631 -294 c0 -6 -4 -13 -10 -16 -5 -3 -10 1 -10 9 0 9 5 16 10 16 6
0 10 -4 10 -9z m-3032 -106 c102 -24 171 -62 242 -134 163 -165 194 -408 80
-631 -61 -119 -213 -220 -367 -242 -335 -49 -611 205 -590 542 10 146 61 256
163 349 121 111 304 155 472 116z m-4318 -215 l145 -220 102 0 103 0 2 218 3
217 73 3 72 3 0 -221 0 -220 105 0 105 0 147 220 146 220 79 0 79 0 -138 -202
c-75 -112 -150 -221 -165 -242 -16 -22 -27 -45 -24 -51 2 -6 79 -118 170 -248
92 -131 170 -245 173 -253 5 -13 -7 -14 -78 -12 l-84 3 -154 223 -154 222
-103 0 -104 0 0 -225 0 -226 -72 3 -73 3 -3 223 -2 222 -103 0 -102 -1 -154
-224 -153 -225 -85 0 -85 0 18 28 c10 15 91 132 181 261 l163 233 -74 107
c-111 162 -242 355 -250 369 -5 9 11 12 71 12 l78 0 145 -220z m1735 -285 l0
-500 -72 -3 -73 -3 0 506 0 506 73 -3 72 -3 0 -500z m713 283 l2 -218 310 0
310 0 0 220 0 220 70 0 70 0 0 -505 0 -505 -70 0 -70 0 0 220 0 220 -310 0
-310 0 -2 -217 -3 -218 -72 -3 -73 -3 0 506 0 506 73 -3 72 -3 3 -217z m2872
2 l0 -220 113 0 113 0 175 220 174 219 79 1 c61 0 76 -3 69 -12 -18 -23 -356
-443 -371 -460 -13 -15 6 -42 189 -265 111 -136 207 -254 212 -260 7 -10 -9
-13 -75 -13 l-84 0 -184 225 -185 224 -112 1 -113 0 0 -225 0 -225 -70 0 -70
0 0 505 0 505 70 0 70 0 0 -220z m-6893 74 c-3 -3 -12 -4 -19 -1 -8 3 -5 6 6
6 11 1 17 -2 13 -5z m8907 -489 c-4 -8 -10 -15 -15 -15 -4 0 -6 7 -3 15 4 8
10 15 15 15 4 0 6 -7 3 -15z m-8909 -315 c-3 -5 -10 -10 -16 -10 -5 0 -9 5 -9
10 0 6 7 10 16 10 8 0 12 -4 9 -10z m8925 -59 c0 -6 -4 -13 -10 -16 -5 -3 -10
1 -10 9 0 9 5 16 10 16 6 0 10 -4 10 -9z m-8653 -653 c-3 -8 -6 -5 -6 6 -1 11
2 17 5 13 3 -3 4 -12 1 -19z m7083 -35 c0 -5 -4 -14 -9 -21 -7 -11 -9 -11 -14
1 -3 8 -3 18 0 21 9 8 23 7 23 -1z m-6246 -78 c3 -8 1 -15 -4 -15 -6 0 -10 7
-10 15 0 8 2 15 4 15 2 0 6 -7 10 -15z m2001 -7 c6 -4 2 -8 -7 -8 -10 0 -18 7
-18 17 0 9 3 12 8 7 4 -5 12 -12 17 -16z m-2155 -7 c0 -5 -9 -7 -20 -4 -11 3
-20 7 -20 9 0 2 9 4 20 4 11 0 20 -4 20 -9z"/>
<path d="M5993 2206 c-103 -34 -176 -98 -222 -196 -23 -50 -26 -67 -26 -175 0
-112 2 -124 29 -179 37 -76 102 -140 174 -174 50 -24 69 -27 157 -27 82 0 109
4 149 23 83 38 131 85 173 169 37 75 38 80 38 187 0 92 -4 121 -23 167 -32 80
-90 142 -169 181 -56 27 -78 32 -152 35 -54 2 -102 -2 -128 -11z"/>
</g>
</svg>
