<?xml version="1.0" standalone="no"?>
<!DOCTYPE svg PUBLIC "-//W3C//DTD SVG 20010904//EN"
 "http://www.w3.org/TR/2001/REC-SVG-20010904/DTD/svg10.dtd">
<svg version="1.0" xmlns="http://www.w3.org/2000/svg"
 width="92.000000pt" height="92.000000pt" viewBox="0 0 92.000000 92.000000"
 preserveAspectRatio="xMidYMid meet">

<g transform="translate(0.000000,92.000000) scale(0.100000,-0.100000)"
fill="#000000" stroke="none">
<path d="M100 460 l0 -90 58 0 c44 0 63 5 75 18 23 25 21 48 -3 65 -18 13 -19
16 -5 27 40 33 3 70 -71 70 l-54 0 0 -90z m81 49 c23 -12 16 -29 -12 -29 -12
0 -19 7 -19 20 0 23 4 24 31 9z m17 -86 c-2 -10 -13 -19 -26 -21 -17 -3 -22 2
-22 17 0 16 6 21 26 21 19 0 25 -5 22 -17z"/>
<path d="M289 495 c18 -32 31 -69 31 -90 0 -31 3 -35 25 -35 22 0 25 4 25 37
0 22 12 57 30 90 l30 53 -25 0 c-17 0 -29 -9 -40 -30 -9 -16 -18 -30 -20 -30
-2 0 -11 14 -20 30 -11 22 -23 30 -41 30 l-26 0 31 -55z"/>
<path d="M455 530 c-25 -28 -13 -62 30 -83 19 -9 35 -21 35 -27 0 -13 -47 -13
-55 1 -5 6 -12 4 -20 -8 -12 -15 -12 -20 2 -30 21 -16 85 -17 101 -1 7 7 12
27 12 46 0 28 -5 35 -36 48 -38 16 -41 41 -4 36 13 -1 27 3 31 10 20 31 -68
39 -96 8z"/>
<path d="M614 527 c-36 -31 -38 -96 -4 -132 31 -32 95 -34 134 -4 36 29 37 99
1 134 -33 34 -93 34 -131 2z m92 -25 c18 -12 24 -41 14 -67 -13 -35 -66 -35
-82 0 -22 49 25 96 68 67z"/>
<path d="M800 460 l0 -90 50 0 c43 0 50 3 50 20 0 15 -7 20 -25 20 -24 0 -25
2 -25 70 0 68 -1 70 -25 70 -25 0 -25 -1 -25 -90z"/>
</g>
</svg>
