<?xml version="1.0" standalone="no"?>
<!DOCTYPE svg PUBLIC "-//W3C//DTD SVG 20010904//EN"
 "http://www.w3.org/TR/2001/REC-SVG-20010904/DTD/svg10.dtd">
<svg version="1.0" xmlns="http://www.w3.org/2000/svg"
 width="102.000000pt" height="156.000000pt" viewBox="0 0 102.000000 156.000000"
 preserveAspectRatio="xMidYMid meet">

<g transform="translate(0.000000,156.000000) scale(0.100000,-0.100000)"
fill="#000000" stroke="none">
<path d="M0 780 l0 -780 510 0 510 0 0 780 0 780 -510 0 -510 0 0 -780z m920
600 l0 -30 -400 0 -400 0 0 30 0 30 400 0 400 0 0 -30z m-634 -119 c-9 -14
-33 -14 -41 -1 -4 6 -1 18 6 26 11 13 14 13 27 0 8 -8 11 -19 8 -25z m384 14
c0 -30 -15 -33 -23 -5 -4 16 1 23 21 29 1 1 2 -10 2 -24z m122 0 c4 -17 1 -25
-8 -25 -14 0 -19 31 -7 43 9 10 10 9 15 -18z m127 16 c-1 -15 -18 -45 -18 -34
-1 6 -3 18 -6 26 -4 8 0 14 10 14 8 0 15 -3 14 -6z m-763 -21 c0 -12 -7 -18
-18 -17 -10 1 -18 8 -18 17 0 9 8 16 18 17 11 1 18 -5 18 -17z m264 0 c0 -13
-7 -18 -20 -17 -11 1 -20 8 -20 17 0 9 9 16 20 17 13 1 20 -4 20 -17z m130 2
c0 -11 -8 -18 -20 -19 -14 -1 -20 4 -20 18 0 12 7 19 20 19 13 0 20 -7 20 -18z
m-380 -82 c0 -5 -7 -10 -15 -10 -10 0 -15 -10 -15 -30 0 -16 -4 -30 -10 -30
-5 0 -10 18 -10 40 0 36 3 40 25 40 14 0 25 -4 25 -10z m68 -13 c3 -12 -4 -20
-17 -24 -12 -3 -21 -12 -21 -19 0 -8 -4 -14 -10 -14 -11 0 -14 63 -3 74 13 13
48 1 51 -17z m56 -15 c5 -18 12 -32 16 -32 14 0 20 33 9 47 -7 7 -9 17 -5 21
4 4 14 -2 22 -12 12 -17 14 -18 14 -3 0 9 5 17 10 17 6 0 10 -8 10 -17 1 -17
1 -17 11 0 5 9 15 17 21 17 7 0 6 -5 -2 -15 -7 -9 -10 -26 -6 -42 6 -27 6 -27
-9 -9 -13 17 -15 18 -15 3 0 -23 -20 -22 -20 1 -1 16 -1 16 -14 0 -14 -19 -46
-24 -46 -8 0 14 -28 12 -33 -2 -11 -31 -15 2 -5 35 13 44 29 43 42 -1z m186 2
c0 -41 15 -37 25 7 4 16 12 28 18 26 14 -4 39 -77 26 -77 -5 0 -9 5 -9 10 0
17 -22 11 -43 -12 -13 -16 -21 -19 -24 -10 -3 6 -13 12 -23 12 -10 0 -20 -6
-23 -12 -2 -7 -7 -10 -11 -7 -4 4 -1 27 6 53 10 38 16 46 35 46 20 0 23 -5 23
-36z m116 6 c8 0 14 7 14 15 0 8 5 15 10 15 6 0 10 -18 10 -40 0 -22 -4 -40
-10 -40 -5 0 -10 7 -10 15 0 21 -28 19 -33 -2 -3 -10 -5 2 -5 27 0 25 2 37 5
28 2 -10 11 -18 19 -18z m104 20 c0 -5 -9 -10 -21 -10 -15 0 -20 -5 -17 -22 2
-16 9 -22 21 -20 9 2 17 -2 17 -8 0 -18 -39 -11 -50 10 -8 14 -8 26 0 40 11
20 50 28 50 10z m35 -11 c-4 -5 -2 -9 3 -9 6 0 12 7 16 15 3 8 11 15 17 15 8
0 8 -4 -1 -15 -10 -12 -10 -21 -2 -40 8 -16 8 -25 1 -25 -5 0 -12 7 -15 15 -4
8 -10 15 -16 15 -5 0 -7 -4 -3 -9 3 -5 1 -12 -5 -16 -6 -4 -10 10 -10 35 0 25
4 39 10 35 6 -4 8 -11 5 -16z m115 1 c15 -28 -4 -62 -33 -58 -22 3 -34 35 -23
64 8 21 44 17 56 -6z m70 10 c0 -5 -8 -10 -17 -10 -16 0 -16 -2 -3 -11 11 -8
12 -12 3 -16 -18 -7 -16 -21 5 -26 10 -3 6 -5 -10 -6 -26 -1 -28 2 -28 39 0
36 3 40 25 40 14 0 25 -4 25 -10z m-415 -111 c-3 -4 -1 -10 5 -14 13 -8 13
-85 0 -85 -5 0 -10 12 -10 28 l-1 27 -15 -27 c-22 -41 -34 -34 -34 18 0 27 4
43 10 39 6 -3 10 -16 10 -28 1 -21 1 -21 15 3 12 23 12 26 -6 32 -26 10 -24
16 6 16 13 0 22 -4 20 -9z m-331 -18 c3 -5 -4 -11 -15 -14 -26 -7 -23 -53 4
-51 9 1 17 -2 17 -7 0 -13 -34 -11 -48 3 -17 17 -15 44 4 62 17 18 30 20 38 7z
m89 -12 c5 -9 7 -28 3 -42 -5 -20 -13 -27 -31 -27 -36 0 -51 34 -30 66 18 27
42 28 58 3z m87 -1 c0 -13 3 -41 6 -63 5 -36 4 -38 -9 -22 -17 20 -43 23 -50
5 -2 -7 -8 -10 -12 -6 -5 5 -2 27 5 50 18 58 18 58 41 58 13 0 19 -7 19 -22z
m80 12 c0 -5 -9 -10 -20 -10 -11 0 -20 -4 -20 -10 0 -5 8 -10 17 -10 15 0 14
-2 -3 -15 -17 -13 -17 -14 -2 -15 28 0 31 -20 4 -20 -24 0 -26 3 -26 45 0 41
2 45 25 45 14 0 25 -4 25 -10z m165 0 c3 -5 -3 -10 -13 -10 -11 0 -23 -7 -26
-16 -8 -21 11 -45 30 -37 8 3 14 0 14 -7 0 -6 -11 -10 -27 -8 -22 2 -29 9 -31
31 -5 42 34 77 53 47z m80 0 c3 -5 -1 -10 -9 -10 -12 0 -16 -10 -16 -35 0 -19
-4 -35 -10 -35 -5 0 -10 16 -10 35 0 19 -4 35 -10 35 -5 0 -10 5 -10 10 0 6
13 10 29 10 17 0 33 -4 36 -10z m61 2 c11 -6 18 -39 15 -69 -1 -7 -14 -13 -31
-13 -28 0 -30 2 -30 38 0 50 15 64 46 44z m74 -19 c19 40 30 33 30 -18 0 -25
-4 -45 -10 -45 -5 0 -10 10 -10 22 l0 22 -16 -22 c-22 -32 -34 -27 -34 16 0
48 13 64 21 25 l6 -28 13 28z m105 17 c3 -5 -3 -10 -14 -10 -12 0 -21 -4 -21
-10 0 -5 8 -10 17 -10 15 0 14 -2 -3 -15 -17 -13 -17 -14 -2 -15 31 0 30 -20
-1 -20 -29 0 -31 2 -31 38 0 21 3 42 7 45 10 10 41 8 48 -3z m5 -320 c0 -162
-2 -180 -17 -180 -31 0 -99 -40 -164 -96 -85 -74 -126 -94 -191 -94 -96 1
-178 60 -178 128 0 28 39 122 51 122 17 0 18 -19 3 -55 -8 -20 -13 -42 -11
-48 2 -7 12 10 22 36 10 26 24 47 31 47 18 0 18 -24 -2 -61 -8 -17 -13 -36
-11 -42 2 -7 13 9 25 36 11 26 26 47 31 47 14 0 14 -13 0 -61 -10 -30 -9 -42
1 -54 7 -8 15 -13 18 -10 3 3 13 -2 22 -10 9 -8 31 -18 48 -21 31 -6 33 -4 57
47 30 65 31 101 5 143 -30 49 -93 80 -165 80 -74 0 -111 -16 -196 -90 -63 -54
-111 -84 -156 -98 l-23 -7 0 210 0 211 400 0 400 0 0 -180z m-329 -83 c78 -41
93 -100 48 -189 -34 -66 -53 -43 -23 27 22 54 9 55 -15 1 -19 -43 -34 -56 -45
-38 -2 4 4 27 15 51 11 24 17 46 14 49 -2 3 -14 -16 -25 -41 -12 -26 -27 -47
-35 -47 -19 0 -19 5 2 58 12 33 13 46 4 55 -7 7 -15 12 -19 12 -4 1 -17 6 -29
13 -13 7 -23 10 -23 6 0 -3 -7 -1 -15 6 -22 19 -44 5 -65 -42 -55 -121 20
-221 165 -222 73 0 112 19 205 100 61 53 93 72 148 88 l22 7 0 -215 0 -216
-400 0 -400 0 0 183 0 182 48 17 c27 10 82 46 127 84 44 37 94 73 110 80 49
22 135 17 186 -9z"/>
<path d="M200 1170 c0 -5 5 -10 10 -10 6 0 10 5 10 10 0 6 -4 10 -10 10 -5 0
-10 -4 -10 -10z"/>
<path d="M447 1173 c-11 -10 -8 -43 3 -43 6 0 10 11 10 25 0 26 -2 29 -13 18z"/>
<path d="M805 1170 c-8 -13 14 -42 26 -34 5 3 9 14 9 25 0 20 -24 26 -35 9z"/>
<path d="M214 1035 c-7 -18 14 -47 27 -39 5 3 9 16 9 30 0 27 -27 34 -36 9z"/>
<path d="M317 1043 c-11 -10 -8 -43 3 -43 6 0 10 11 10 25 0 26 -2 29 -13 18z"/>
<path d="M710 1040 c0 -5 5 -10 10 -10 6 0 10 5 10 10 0 6 -4 10 -10 10 -5 0
-10 -4 -10 -10z"/>
<path d="M710 1005 c0 -9 5 -15 11 -13 6 2 11 8 11 13 0 5 -5 11 -11 13 -6 2
-11 -4 -11 -13z"/>
</g>
</svg>
