<?xml version="1.0" standalone="no"?>
<!DOCTYPE svg PUBLIC "-//W3C//DTD SVG 20010904//EN"
 "http://www.w3.org/TR/2001/REC-SVG-20010904/DTD/svg10.dtd">
<svg version="1.0" xmlns="http://www.w3.org/2000/svg"
 width="79.000000pt" height="76.000000pt" viewBox="0 0 79.000000 76.000000"
 preserveAspectRatio="xMidYMid meet">

<g transform="translate(0.000000,76.000000) scale(0.100000,-0.100000)"
fill="#000000" stroke="none">
<path d="M310 569 c-40 -12 -74 -35 -150 -101 -31 -26 -80 -58 -110 -72 -30
-14 -48 -25 -40 -25 31 -1 98 38 170 99 89 75 122 90 193 90 103 0 187 -71
171 -145 -9 -40 -42 -105 -54 -105 -14 0 -12 22 6 65 22 54 9 55 -15 1 -19
-43 -34 -56 -45 -38 -2 4 4 27 15 51 11 24 17 46 14 49 -2 3 -14 -16 -25 -41
-12 -26 -27 -47 -35 -47 -19 0 -19 5 1 57 13 34 14 46 4 58 -6 8 -15 14 -18
13 -4 -1 -17 3 -29 10 -13 7 -23 10 -23 6 0 -3 -7 -1 -15 6 -22 19 -44 5 -65
-42 -55 -121 20 -221 165 -222 73 0 112 19 210 103 39 34 86 66 105 72 46 15
66 34 25 25 -40 -10 -86 -39 -154 -99 -76 -67 -119 -87 -183 -87 -96 1 -178
60 -178 128 0 28 39 122 51 122 17 0 18 -19 3 -55 -8 -20 -13 -42 -11 -48 2
-7 12 10 22 36 10 26 24 47 31 47 18 0 18 -24 -2 -61 -8 -17 -13 -36 -11 -42
2 -7 13 9 25 36 11 26 26 47 31 47 14 0 14 -13 0 -61 -10 -30 -9 -42 1 -54 7
-8 15 -13 18 -10 3 3 13 -2 22 -10 9 -8 31 -18 48 -21 31 -6 33 -4 57 47 30
65 31 101 5 143 -38 62 -150 99 -230 75z"/>
</g>
</svg>
